# File produced by Open Asset Import Library (http://www.assimp.sf.net)
# (assimp v3.1.206520482)

mtllib clefsMolette.mtl

# 84 vertex positions
v 91.2457 0 56.3596
v 96.4424 0 52.0886
v 96.4424 4 52.0886
v 91.2457 4 56.3596
v 92.7962 0 18.5642
v 95.3528 0 -48.7636
v 95.3528 4 -48.7636
v 92.7962 4 18.5642
v 89.8118 4 -59.4468
v 89.8118 0 -59.4468
v 86.1388 0 -59.4468
v 86.1388 4 -59.4468
v 80.9314 4 18.5642
v 80.4206 4 -48.7636
v 80.4206 0 -48.7636
v 80.9314 0 18.5642
v 80.1925 0 -53.8393
v 80.1925 4 -53.8393
v 81.6048 4 -56.643
v 81.6048 0 -56.643
v 94.6138 4 -56.1109
v 95.7309 0 -53.8932
v 94.3457 0 -56.643
v 94.3457 4 -56.643
v 89.9361 0 -59.3699
v 69.0381 4 40.8636
v 69.0381 0 40.8636
v 71.2229 0 49.0924
v 71.2229 4 49.0924
v 101.822 4 36.6032
v 102.926 4 38.3659
v 102.926 0 38.3659
v 101.822 0 36.6032
v 86.9469 0 43.6507
v 88.8804 0 45.2656
v 88.8804 4 45.2656
v 86.9469 4 43.6507
v 76.8933 4 30.0073
v 76.8933 0 30.0073
v 80.3898 0 46.5618
v 80.3898 4 46.5618
v 76.2363 0 56.1519
v 83.6485 0 59.5679
v 83.6485 4 59.5679
v 76.2363 4 56.1519
v 98.5261 0 39.8333
v 98.5261 4 39.8333
v 90.3618 4 -48.6619
v 92.5783 4 -52.501
v 92.5783 0 -52.501
v 90.3618 0 -48.6619
v 90.3618 0 -56.34
v 90.3618 4 -56.34
v 85.9289 4 -56.34
v 85.9289 0 -56.34
v 83.7124 0 -52.501
v 83.7124 4 -52.501
v 85.9289 4 -48.6619
v 85.9289 0 -48.6619
v 84.405 4 -45.3121
v 83.5609 4 18.5642
v 95.7581 4 -53.8393
v 91.6046 4 -45.3121
v 88.5256 2.35412 -45.3121
v 90.722 2.35412 -12.4608
v 91.6046 2.35412 -45.3121
v 95.7581 0 -53.8393
v 91.6046 0 -45.3121
v 84.405 0 -45.3121
v 88.5256 0 -45.3121
v 85.617 4 38.1079
v 88.5256 4 -45.3121
v 94.3065 4 34.6146
v 83.2488 4 31.6888
v 82.0656 4 28.4818
v 82.0656 2.35412 28.4818
v 89.8884 2.35412 18.5642
v 83.5609 2.35412 18.5642
v 84.405 2.35412 -45.3121
v 94.3065 2.35412 34.6146
v 83.2488 2.35412 31.6888
v 85.617 2.35412 38.1079
v 89.8884 4 18.5642
v 90.722 4 -12.4608

# 107 UV coordinates
vt 0.911369 0.681778 0
vt 0.887384 0.661798 0
vt 0.899503 0.638926 0
vt 0.915646 0.664943 0
vt 0.687096 0.560599 0
vt 0.226369 0.218305 0
vt 0.245317 0.19128 0
vt 0.705391 0.530415 0
vt 0.155555 0.133571 0
vt 0.129058 0.153504 0
vt 0.11134 0.13432 0
vt 0.136855 0.115959 0
vt 0.620394 0.676268 0
vt 0.147735 0.357076 0
vt 0.16377 0.327748 0
vt 0.638923 0.648586 0
vt 0.0722371 0.0894206 0
vt 0.0985705 0.0734186 0
vt 0.109994 0.0913173 0
vt 0.0857085 0.107633 0
vt 0.190218 0.155976 0
vt 0.190106 0.180519 0
vt 0.16529 0.17182 0
vt 0.185783 0.154105 0
vt 0.12972 0.154268 0
vt 0.760336 0.837846 0
vt 0.779923 0.8212 0
vt 0.820275 0.859137 0
vt 0.798351 0.87986 0
vt 0.849373 0.577958 0
vt 0.852953 0.586628 0
vt 0.838614 0.610587 0
vt 0.827514 0.606214 0
vt 0.880364 0.750511 0
vt 0.886053 0.736013 0
vt 0.981993 0.645103 0
vt 0.999999 0.641672 0
vt 0.684877 0.765077 0
vt 0.70839 0.740985 0
vt 0.88068 0.804601 0
vt 0.918171 0.795277 0
vt 0.861583 0.899667 0
vt 0.915182 0.934686 0
vt 0.874085 0.975582 0
vt 0.83967 0.922225 0
vt 0.831534 0.643812 0
vt 0.887036 0.578136 0
vt 0.94714 0.924254 0
vt 0.272888 0.155683 0
vt 0.225972 0.153133 0
vt 0.228663 0.13062 0
vt 0.25783 0.125839 0
vt 0.201918 0.108714 0
vt 0.179369 0.126647 0
vt 0.152699 0.095511 0
vt 0.17933 0.0787286 0
vt 0.157375 0.0458179 0
vt 0.12496 0.057147 0
vt 0.115994 0.0185783 0
vt 0.146805 0.00966758 0
vt 0.280622 0.102258 0
vt 0.298492 0.125245 0
vt 0.12622 0.177707 0
vt 0.181265 0.190181 0
vt 0.156318 0.402351 0
vt 0.606643 0.69311 0
vt 0.20761 0.166544 0
vt 0.288064 0.186155 0
vt 0.314085 0.160502 0
vt 0.517264 0.341313 0
vt 0.29965 0.179004 0
vt 0.0845324 0.142727 0
vt 0.0472179 0.106621 0
vt 0.190631 0.180792 0
vt 0.234639 0.262209 0
vt 0.20418 0.314902 0
vt 0.220874 0.284105 0
vt 0.732192 0.931087 0
vt 0.66583 0.930311 0
vt 0.644014 0.872655 0
vt 0.044825 0.0596433 0
vt 0.0772551 0.0402038 0
vt 0.301268 0.155813 0
vt 0.323331 0.128771 0
vt 0.090134 2.98023e-08 0
vt 0.205069 0.250386 0
vt 2.98023e-08 0.0656998 0
vt 0.0122595 0.0943542 0
vt 0.186989 0.28709 0
vt 0.883228 0.529701 0
vt 0.970908 0.543858 0
vt 0.642681 0.80303 0
vt 0.643304 0.768009 0
vt 0.861653 0.428134 0
vt 0.727422 0.49341 0
vt 0.752448 0.444517 0
vt 0.333305 0.134087 0
vt 0.886129 0.519158 0
vt 0.898576 0.448705 0
vt 0.965023 0.51928 0
vt 0.719103 0.506344 0
vt 0.509797 0.35297 0
vt 0.14975 0.414231 0
vt 0.598475 0.703938 0
vt 0.629902 0.771979 0
vt 0.629089 0.802677 0
vt 0.630041 0.871121 0

# 82 vertex normals
vn -0.345206 -0.857002 0.382597
vn 0.349771 -0.924076 0.154088
vn 0.349771 0.924076 0.154088
vn -0.345206 0.857002 0.382597
vn 0.234999 -0.971832 -0.0178094
vn 0.764786 -0.643524 0.0312857
vn 0.742305 0.669373 0.030366
vn 0.65648 0.752701 -0.0497512
vn 0.266022 0.568223 -0.778688
vn 0.0202288 -0.0185753 -0.999623
vn -0.300449 -0.369158 -0.879462
vn -0.262602 0.583245 -0.768677
vn -0.561141 0.827339 -0.025127
vn -0.713901 0.700209 0.00728557
vn -0.711593 -0.702554 0.00726203
vn -0.246555 -0.969066 -0.0110403
vn -0.654113 -0.749981 -0.0983104
vn -0.675881 0.729977 -0.101582
vn -0.536579 0.623154 -0.569
vn -0.542932 -0.611353 -0.575737
vn 0.893088 1.35621e-06 -0.449882
vn 0.565518 -0.773975 -0.284872
vn 0.397447 -0.718753 -0.570464
vn 0.500874 0.481963 -0.718914
vn 0.450624 -0.51568 -0.728706
vn -0.232157 0.97023 -0.0689773
vn -0.195418 -0.979 -0.0580617
vn -0.455022 -0.864325 0.214236
vn -0.553118 0.791354 0.260422
vn 0.616589 0.721337 -0.315423
vn 0.624053 0.452818 0.6368
vn 0.624053 -0.452818 0.6368
vn 0.234613 -0.964651 -0.120019
vn 0.0259103 -0.98515 0.169728
vn -0.470279 -0.868063 0.159072
vn -0.278239 0.95589 0.0941139
vn 0.0245621 0.986666 0.160897
vn -0.539859 0.790979 -0.287931
vn -0.209225 -0.97148 -0.111589
vn 0.305673 -0.950027 0.0633431
vn 0.55162 0.826226 0.114309
vn -0.566802 -0.476159 0.672315
vn 0.701926 -0.644113 0.304003
vn 0.403933 0.897905 0.174943
vn -0.390783 0.795255 0.463529
vn 0.364702 -0.915042 0.172312
vn 0.236874 0.965073 0.111917
vn -0.375242 0.660887 -0.649939
vn -0.800407 0.599457 0
vn -0.705701 -0.70851 0
vn -0.336329 -0.739952 -0.58254
vn -0.300606 -0.799089 0.520665
vn -0.304878 0.79259 0.528063
vn 0.287283 0.818458 0.497589
vn 0.292483 -0.811058 0.506595
vn 0.775119 -0.631815 0
vn 0.669882 0.742467 0
vn 0.263324 0.850084 -0.45609
vn 0.295464 -0.806724 -0.511759
vn 0.219651 0.975429 0.017072
vn 0.5227 0.852356 0.0165706
vn 0.688564 0.723397 0.0507553
vn -0.147888 0.988955 0.0098876
vn 0 0.998747 0.0500383
vn -0.406161 0.913736 -0.0109128
vn -0.471186 0.881471 0.0315028
vn 0.997264 -0.00777144 0.0735102
vn 0 -1 0
vn 0.0183801 0.997415 -0.0694667
vn 0 0.924092 0.382169
vn -0.145108 0.988907 -0.0317142
vn 0.15532 0.986201 -0.0573025
vn 0.305167 0.952271 0.00725757
vn 0.212003 0.977256 0.00504191
vn -0.169421 0.985459 0.0129006
vn 0.251732 0.967764 0.00798041
vn 0.612692 0.788886 0.0476203
vn -0.139271 0.989787 -0.0304383
vn 0.0691166 0.997283 -0.0254993
vn 0.0721292 0.959417 -0.272609
vn -0.47692 0.878196 0.0363151
vn -0.739962 0.672355 -0.0198814

# Mesh 'g Clé_a_molette_Clé_a_molette' with 168 faces
g g Clé_a_molette_Clé_a_molette
usemtl wire_088199225
f 1/1/1 2/2/2 3/3/3
f 3/3/3 4/4/4 1/1/1
f 5/5/5 6/6/6 7/7/7
f 7/7/7 8/8/8 5/5/5
f 9/9/9 10/10/10 11/11/11
f 11/11/11 12/12/12 9/9/9
f 13/13/13 14/14/14 15/15/15
f 15/15/15 16/16/16 13/13/13
f 17/17/17 18/18/18 19/19/19
f 19/19/19 20/20/20 17/17/17
f 21/21/21 22/22/22 23/23/23
f 23/23/23 24/24/24 21/21/21
f 19/19/19 12/12/12 11/11/11
f 11/11/11 20/20/20 19/19/19
f 25/25/25 10/10/10 9/9/9
f 25/25/25 9/9/9 24/24/24
f 24/24/24 23/23/23 25/25/25
f 26/26/26 27/27/27 28/28/28
f 28/28/28 29/29/29 26/26/26
f 30/30/30 31/31/31 32/32/32
f 32/32/32 33/33/33 30/30/30
f 34/34/34 35/35/35 36/36/36
f 36/36/36 37/37/37 34/34/34
f 38/38/38 13/13/13 16/16/16
f 16/16/16 39/39/39 38/38/38
f 40/40/40 34/34/34 37/37/37
f 37/37/37 41/41/41 40/40/40
f 26/26/26 38/38/38 39/39/39
f 39/39/39 27/27/27 26/26/26
f 42/42/42 43/43/43 44/44/44
f 44/44/44 45/45/45 42/42/42
f 46/46/46 32/32/32 31/31/31
f 31/31/31 47/47/47 46/46/46
f 8/8/8 30/30/30 33/33/33
f 33/33/33 5/5/5 8/8/8
f 2/2/2 46/46/46 47/47/47
f 47/47/47 3/3/3 2/2/2
f 4/4/4 36/36/36 35/35/35
f 35/35/35 1/1/1 4/4/4
f 43/43/43 40/40/40 41/41/41
f 41/41/41 44/48/44 43/43/43
f 45/45/45 29/29/29 28/28/28
f 28/28/28 42/42/42 45/45/45
f 48/49/48 49/50/49 50/51/50
f 50/51/50 51/52/51 48/49/48
f 52/53/52 50/51/50 49/50/49
f 49/50/49 53/54/53 52/53/52
f 52/53/52 53/54/53 54/55/54
f 54/55/54 55/56/55 52/53/52
f 56/57/56 55/56/55 54/55/54
f 54/55/54 57/58/57 56/57/56
f 56/57/56 57/58/57 58/59/58
f 58/59/58 59/60/59 56/57/56
f 51/52/51 59/61/59 58/62/58
f 58/62/58 48/49/48 51/52/51
f 52/63/52 23/23/23 22/22/22
f 22/22/22 50/64/50 52/63/52
f 12/12/12 54/55/54 53/54/53
f 53/54/53 9/9/9 12/12/12
f 53/54/53 24/24/24 9/9/9
f 12/12/12 19/19/19 54/55/54
f 54/55/54 19/19/19 18/18/18
f 18/18/18 57/58/57 54/55/54
f 60/65/60 13/13/13 61/66/61
f 24/24/24 53/54/53 49/50/49
f 24/24/24 49/50/49 62/67/62
f 62/67/62 21/21/21 24/24/24
f 63/68/63 8/8/8 7/7/7
f 14/14/14 13/13/13 60/65/60
f 64/69/64 65/70/65 66/71/66
f 25/25/25 52/63/52 55/72/55
f 25/25/25 55/72/55 11/11/11
f 11/11/11 10/10/10 25/25/25
f 55/72/55 20/20/20 11/11/11
f 52/63/52 25/25/25 23/23/23
f 20/20/20 55/72/55 56/73/56
f 56/73/56 17/17/17 20/20/20
f 22/22/22 21/21/21 62/67/62
f 62/67/62 67/74/67 22/22/22
f 6/6/6 5/5/5 68/75/68
f 33/33/33 32/32/32 46/46/46
f 15/15/15 69/76/68 16/16/16
f 70/77/68 68/75/68 5/5/5
f 47/47/47 31/31/31 30/30/30
f 41/78/41 29/29/29 45/45/45
f 45/45/45 44/44/44 41/78/41
f 47/47/47 37/37/37 36/36/36
f 36/36/36 3/3/3 47/47/47
f 36/36/36 4/4/4 3/3/3
f 26/26/26 37/79/37 71/80/69
f 37/79/37 26/26/26 29/29/29
f 29/29/29 41/78/41 37/79/37
f 16/16/16 69/76/68 70/77/68
f 70/77/68 5/5/5 16/16/16
f 28/28/28 40/40/40 43/43/43
f 43/43/43 42/42/42 28/28/28
f 33/33/33 39/39/39 16/16/16
f 16/16/16 5/5/5 33/33/33
f 2/2/2 1/1/1 35/35/35
f 40/40/40 28/28/28 27/27/27
f 27/27/27 34/34/34 40/40/40
f 46/46/46 2/2/2 35/35/35
f 46/46/46 35/35/35 34/34/34
f 46/46/46 34/34/34 27/27/27
f 46/46/46 27/27/27 39/39/39
f 39/39/39 33/33/33 46/46/46
f 7/7/7 6/6/6 67/74/67
f 67/74/67 62/67/62 7/7/7
f 15/81/15 14/82/14 18/18/18
f 18/18/18 17/17/17 15/81/15
f 72/83/70 58/62/58 60/84/60
f 63/68/63 7/7/7 62/67/62
f 63/68/63 62/67/62 49/50/49
f 49/50/49 48/49/48 63/68/63
f 14/82/14 60/85/60 58/59/58
f 14/82/14 58/59/58 57/58/57
f 57/58/57 18/18/18 14/82/14
f 72/83/70 63/68/63 48/49/48
f 48/49/48 58/62/58 72/83/70
f 6/6/6 68/75/68 51/86/51
f 6/6/6 51/86/51 50/64/50
f 6/6/6 50/64/50 22/22/22
f 22/22/22 67/74/67 6/6/6
f 69/87/68 15/81/15 17/17/17
f 69/87/68 17/17/17 56/73/56
f 56/73/56 59/88/59 69/87/68
f 68/75/68 70/77/68 59/89/59
f 59/89/59 51/86/51 68/75/68
f 69/76/68 59/89/59 70/77/68
f 73/90/71 71/91/69 37/37/37
f 37/37/37 47/47/47 73/90/71
f 38/38/38 74/92/72 75/93/73
f 76/94/74 77/95/75 78/96/76
f 79/97/77 78/96/76 77/95/75
f 79/97/77 77/95/75 65/70/65
f 65/70/65 64/69/64 79/97/77
f 47/47/47 30/30/30 73/90/71
f 80/98/78 81/99/79 82/100/80
f 83/101/81 73/90/71 30/30/30
f 30/30/30 8/8/8 83/101/81
f 84/102/82 83/101/81 8/8/8
f 84/102/82 8/8/8 63/68/63
f 26/26/26 71/80/69 74/92/72
f 74/92/72 38/38/38 26/26/26
f 38/38/38 75/93/73 61/66/61
f 61/66/61 13/13/13 38/38/38
f 77/95/75 76/94/74 81/99/79
f 81/99/79 80/98/78 77/95/75
f 64/69/64 72/83/70 60/84/60
f 60/84/60 79/97/77 64/69/64
f 79/103/77 60/65/60 61/66/61
f 61/66/61 78/104/76 79/103/77
f 78/104/76 61/66/61 75/93/73
f 75/93/73 76/105/74 78/104/76
f 76/105/74 75/93/73 74/92/72
f 74/92/72 81/106/79 76/105/74
f 81/106/79 74/92/72 71/80/69
f 71/80/69 82/107/80 81/106/79
f 82/100/80 71/91/69 73/90/71
f 73/90/71 80/98/78 82/100/80
f 80/98/78 73/90/71 83/101/81
f 83/101/81 77/95/75 80/98/78
f 77/95/75 83/101/81 84/102/82
f 84/102/82 65/70/65 77/95/75
f 65/70/65 84/102/82 63/68/63
f 63/68/63 66/71/66 65/70/65
f 66/71/66 63/68/63 72/83/70
f 72/83/70 64/69/64 66/71/66

